<svg xmlns="http://www.w3.org/2000/svg" width="256" height="40.367" viewBox="0 0 256 40.367">
  <g id="LOGO_FOOTERR" data-name="LOGO FOOTERR" transform="translate(128 20.183)">
    <g id="Group_486" data-name="Group 486" transform="translate(-128 -20.183)">
      <g id="Group_480" data-name="Group 480" transform="translate(51.883 0.254)">
        <g id="Group_478" data-name="Group 478" transform="translate(0 3.782)">
          <path id="Path_664" data-name="Path 664" d="M116.593,6.722V38.881H109.3L95.12,21.4h-.049V38.881H86.4V6.722h7.239l14.233,17.533h.049V6.722Z" transform="translate(-86.404 -6.722)" fill="#09002a"/>
        </g>
        <g id="Group_479" data-name="Group 479" transform="translate(32.038)">
          <path id="Path_665" data-name="Path 665" d="M166.894,19.66V43.89H158.8V41.475c-1.609,1.922-3.979,2.817-7.152,2.817-6.572,0-11.892-4.828-11.892-12.562,0-7.689,5.32-12.472,11.892-12.472a9.006,9.006,0,0,1,6.75,2.5v-2.1Zm-8.36,12.07c0-3.666-2.236-5.722-5.1-5.722s-5.1,2.057-5.1,5.722c0,3.71,2.236,5.811,5.1,5.811S158.534,35.441,158.534,31.73Z" transform="translate(-139.758 -7.948)" fill="#09002a"/>
          <path id="Path_666" data-name="Path 666" d="M187.186,41.789l2.548-5.811a16.989,16.989,0,0,0,8.449,2.235c2.861,0,3.8-.626,3.8-1.654,0-3.264-14.305.447-14.305-9.254,0-4.56,4.2-8.047,11.8-8.047a21.26,21.26,0,0,1,9.567,2.057L206.5,27.082a14.194,14.194,0,0,0-6.973-1.789c-2.861,0-3.889.805-3.889,1.7,0,3.353,14.26-.268,14.26,9.343,0,4.471-4.112,7.957-11.981,7.957C193.8,44.292,189.555,43.264,187.186,41.789Z" transform="translate(-158.707 -7.948)" fill="#09002a"/>
          <path id="Path_667" data-name="Path 667" d="M224.86,31.73c0-7.287,5.767-12.472,13.9-12.472,5.5,0,9.7,2.459,11.355,6.661l-6.572,3.352a5.253,5.253,0,0,0-4.828-3.264c-2.95,0-5.275,2.057-5.275,5.722,0,3.755,2.325,5.811,5.275,5.811a5.252,5.252,0,0,0,4.828-3.263l6.572,3.352c-1.654,4.2-5.856,6.661-11.355,6.661C230.627,44.292,224.86,39.107,224.86,31.73Z" transform="translate(-173.759 -7.948)" fill="#09002a"/>
          <path id="Path_668" data-name="Path 668" d="M267,4.938c0-2.548,2.057-4.515,5.186-4.515s5.186,1.833,5.186,4.381c0,2.682-2.057,4.649-5.186,4.649S267,7.486,267,4.938Zm.939,7.2h8.494v24.23H267.94Z" transform="translate(-190.595 -0.423)" fill="#09002a"/>
          <path id="Path_669" data-name="Path 669" d="M305.761,35.709l4.426,4.649c-2.28,2.593-5.677,3.934-10.282,3.934-8.628,0-14.216-5.32-14.216-12.562,0-7.287,5.722-12.472,13.412-12.472,6.973,0,12.83,4.425,12.874,12.338l-17.3,3.308c.939,1.967,2.816,2.906,5.5,2.906A7.761,7.761,0,0,0,305.761,35.709ZM294,30.568l9.835-1.922a4.641,4.641,0,0,0-4.693-3.353C296.239,25.293,294.272,27.126,294,30.568Z" transform="translate(-198.062 -7.948)" fill="#09002a"/>
          <path id="Path_670" data-name="Path 670" d="M358.091,30.032V43.89H349.6V31.418c0-3.487-1.52-4.962-3.979-4.962-2.727,0-4.828,1.7-4.828,5.722V43.89H332.3V19.66h8.092V22.3a10.405,10.405,0,0,1,7.688-3.04C353.755,19.258,358.091,22.522,358.091,30.032Z" transform="translate(-216.683 -7.948)" fill="#09002a"/>
          <path id="Path_671" data-name="Path 671" d="M396.011,39.575a11.414,11.414,0,0,1-5.9,1.386c-6.213,0-9.789-3.04-9.789-9.253V10.92h8.493v6.3h5.5v6.348h-5.5v8.046c0,1.788.984,2.772,2.5,2.772a4.652,4.652,0,0,0,2.593-.76Z" transform="translate(-235.87 -4.617)" fill="#09002a"/>
          <path id="Path_672" data-name="Path 672" d="M409.358,49.205a5.1,5.1,0,0,1,10.192,0,5.1,5.1,0,0,1-10.192,0Z" transform="translate(-247.471 -17.912)" fill="#09002a"/>
        </g>
      </g>
      <g id="Group_485" data-name="Group 485">
        <g id="Group_481" data-name="Group 481" transform="translate(0 0.019)">
          <path id="Path_673" data-name="Path 673" d="M27.092,7.36,15.249,1.341C8.428-2.5,0,2.434,0,11.71V40.379l10.7-7.623v-14.3Z" transform="translate(0 -0.031)" fill="#12a0f3"/>
        </g>
        <g id="Group_482" data-name="Group 482" transform="translate(10.701)">
          <path id="Path_674" data-name="Path 674" d="M34.212,7.347l.147.075V20.964L17.821,32.744h0l11.99,5.339A10.233,10.233,0,0,0,45.06,29.165V0Z" transform="translate(-17.821)" fill="#f2b200"/>
        </g>
        <g id="Group_483" data-name="Group 483" transform="translate(10.701 7.347)">
          <path id="Path_675" data-name="Path 675" d="M34.359,12.311l-.147-.075-16.391,11.1v14.3l16.538-11.78Z" transform="translate(-17.821 -12.236)" fill="#00af69"/>
        </g>
        <g id="Group_484" data-name="Group 484" transform="translate(10.701 7.347)">
          <path id="Path_676" data-name="Path 676" d="M34.359,12.311l-.147-.075-16.391,11.1v14.3l16.538-11.78Z" transform="translate(-17.821 -12.236)" fill="#006a3b"/>
        </g>
      </g>
    </g>
  </g>
</svg>
