<svg xmlns="http://www.w3.org/2000/svg" xmlns:xlink="http://www.w3.org/1999/xlink" width="28" height="28" viewBox="0 0 28 28">
  <defs>
    <clipPath id="clip-path">
      <rect id="Rectangle_14" data-name="Rectangle 14" width="28" height="28" transform="translate(1061 6485)" fill="#f2b200"/>
    </clipPath>
  </defs>
  <g id="insta" transform="translate(-1061 -6485)" clip-path="url(#clip-path)">
    <g id="_002-instagram" data-name="002-instagram" transform="translate(1061 6485)">
      <path id="Path_29" data-name="Path 29" d="M16.68,14A2.68,2.68,0,1,1,14,11.32,2.68,2.68,0,0,1,16.68,14Zm0,0" fill="#f2b200"/>
      <path id="Path_30" data-name="Path 30" d="M20.267,9.259a2.662,2.662,0,0,0-1.526-1.526,4.448,4.448,0,0,0-1.493-.277C16.4,7.418,16.146,7.41,14,7.41s-2.4.008-3.249.047a4.451,4.451,0,0,0-1.493.277A2.663,2.663,0,0,0,7.733,9.259a4.449,4.449,0,0,0-.277,1.493c-.039.848-.047,1.1-.047,3.249s.008,2.4.047,3.249a4.448,4.448,0,0,0,.277,1.493,2.662,2.662,0,0,0,1.526,1.526,4.442,4.442,0,0,0,1.493.277c.848.039,1.1.047,3.248.047s2.4-.008,3.249-.047a4.442,4.442,0,0,0,1.493-.277,2.662,2.662,0,0,0,1.526-1.526,4.452,4.452,0,0,0,.277-1.493c.039-.848.047-1.1.047-3.249s-.008-2.4-.047-3.249A4.442,4.442,0,0,0,20.267,9.259ZM14,18.128A4.128,4.128,0,1,1,18.128,14,4.128,4.128,0,0,1,14,18.128Zm4.291-7.455a.965.965,0,1,1,.965-.965A.965.965,0,0,1,18.291,10.673Zm0,0" fill="#f2b200"/>
      <path id="Path_31" data-name="Path 31" d="M14,0A14,14,0,1,0,28,14,14,14,0,0,0,14,0Zm7.991,17.314a5.9,5.9,0,0,1-.374,1.951,4.111,4.111,0,0,1-2.351,2.351,5.9,5.9,0,0,1-1.951.374c-.857.039-1.131.048-3.314.048s-2.457-.009-3.315-.048a5.9,5.9,0,0,1-1.951-.374,4.111,4.111,0,0,1-2.351-2.351,5.9,5.9,0,0,1-.374-1.951c-.04-.857-.049-1.131-.049-3.315s.009-2.457.048-3.314a5.9,5.9,0,0,1,.373-1.951A4.113,4.113,0,0,1,8.734,6.383a5.9,5.9,0,0,1,1.951-.374c.857-.039,1.131-.048,3.314-.048s2.457.009,3.314.049a5.9,5.9,0,0,1,1.951.373,4.112,4.112,0,0,1,2.351,2.351,5.9,5.9,0,0,1,.374,1.951c.039.857.048,1.131.048,3.314S22.03,16.457,21.991,17.314Zm0,0" fill="#f2b200"/>
    </g>
  </g>
</svg>
