<?xml version="1.0" encoding="UTF-8"?><svg id="Layer_2" xmlns="http://www.w3.org/2000/svg" viewBox="0 0 140.65 149.27"><defs><style>.cls-1{fill:#006b3b;}.cls-2{fill:#eeb01e;}.cls-3{fill:#4398d3;}</style></defs><g id="Layer_1-2"><g id="Layer_1-2"><g><path class="cls-3" d="M2.74,149.27c-.43,0-.86-.1-1.25-.3-.91-.47-1.48-1.41-1.48-2.43V44.45C0,27.52,7.76,12.87,20.77,5.28c11.62-6.79,25.68-6.82,37.61-.09l42.06,21.33c.86,.44,1.43,1.3,1.49,2.27,.06,.97-.39,1.89-1.2,2.44l-57.15,38.72v49.46c0,.89-.43,1.72-1.15,2.23L4.32,148.76c-.47,.34-1.03,.51-1.59,.51ZM39.52,5.65c-5.54,0-11.03,1.45-15.99,4.35C12.22,16.6,5.47,29.48,5.47,44.45v96.77l32.63-23.24v-49.5c0-.91,.45-1.76,1.2-2.27L93.81,29.29,55.79,10.01c-5.16-2.91-10.74-4.36-16.27-4.36Z"/><path class="cls-2" d="M101.5,145.89c-6.5,0-13.08-1.62-19.13-5.03l-42.64-18.96c-.89-.4-1.51-1.24-1.61-2.22-.1-.97,.32-1.93,1.12-2.5l57.22-41.41V28.95c0-.91,.45-1.76,1.2-2.27L136.38,.47c.84-.57,1.92-.63,2.82-.15,.89,.47,1.45,1.4,1.45,2.42V106.64c.02,6.84-1.74,13.58-5.11,19.49-7.2,12.66-20.44,19.76-34.05,19.77Zm-55.2-27.06l38.42,17.08c.08,.04,.16,.08,.24,.12,16.11,9.16,36.67,3.5,45.83-12.62,2.89-5.07,4.41-10.87,4.39-16.77V7.89l-33.25,22.51v46.77c0,.88-.42,1.7-1.13,2.22l-54.5,39.44Z"/><path class="cls-1" d="M40.84,122.14c-.43,0-.85-.1-1.24-.3-.92-.47-1.49-1.41-1.49-2.44v-50.91c0-.91,.45-1.76,1.2-2.27L97.66,26.69c.84-.57,1.92-.63,2.82-.15,.9,.47,1.45,1.4,1.45,2.42v48.22c0,.88-.42,1.7-1.13,2.22l-58.35,42.23c-.48,.34-1.04,.52-1.6,.52Zm2.74-52.2v44.1l52.88-38.27V34.11l-52.88,35.83Z"/></g></g></g></svg>