<svg xmlns="http://www.w3.org/2000/svg" width="219.521" height="34.628" viewBox="0 0 219.521 34.628">
  <g id="nascient-logo-package-rgb-02" transform="translate(-9.07 -16)">
    <path id="Path_895" data-name="Path 895" d="M121.354,22.75V50.323h-6.246L102.952,35.334h-.046V50.323H95.47V22.75h6.179l12.234,15.061h.041V22.75Z" transform="translate(-41.912 -3.274)" fill="#130f28"/>
    <path id="Path_896" data-name="Path 896" d="M172.083,35.66V56.411h-6.931v-2.06c-1.38,1.648-3.414,2.415-6.133,2.415-5.638,0-10.2-4.119-10.2-10.772S153.382,35.3,159.02,35.3a7.723,7.723,0,0,1,5.788,2.147V35.66Zm-7.168,10.35c0-3.141-1.915-4.907-4.372-4.907s-4.366,1.766-4.366,4.907,1.915,4.984,4.366,4.984,4.377-1.828,4.377-5.01Z" transform="translate(-67.792 -9.362)" fill="#130f28"/>
    <path id="Path_897" data-name="Path 897" d="M196.25,54.6l2.188-4.979a14.6,14.6,0,0,0,7.245,1.915c2.451,0,3.254-.515,3.254-1.421,0-2.8-12.265.386-12.265-7.935,0-3.908,3.6-6.9,10.123-6.9a18.191,18.191,0,0,1,8.2,1.766l-2.188,4.943a12.193,12.193,0,0,0-5.978-1.545c-2.456,0-3.337.69-3.337,1.457,0,2.878,12.229-.227,12.229,8.012,0,3.836-3.527,6.823-10.272,6.823A18.774,18.774,0,0,1,196.25,54.6Z" transform="translate(-90.8 -9.353)" fill="#130f28"/>
    <path id="Path_898" data-name="Path 898" d="M233.93,45.975c0-6.246,4.943-10.695,11.92-10.695,4.717,0,8.316,2.111,9.737,5.715l-5.659,2.894a4.493,4.493,0,0,0-4.119-2.8c-2.528,0-4.521,1.766-4.521,4.907,0,3.223,1.993,4.984,4.521,4.984a4.455,4.455,0,0,0,4.119-2.8l5.664,2.853c-1.421,3.6-5.02,5.71-9.737,5.71C238.873,56.762,233.93,52.3,233.93,45.975Z" transform="translate(-109.078 -9.353)" fill="#130f28"/>
    <path id="Path_899" data-name="Path 899" d="M276.07,20.352c0-2.188,1.761-3.872,4.444-3.872s4.449,1.57,4.449,3.754c0,2.3-1.766,3.991-4.449,3.991S276.07,22.52,276.07,20.352Zm.8,6.179h7.286V47.282h-7.286Z" transform="translate(-129.52 -0.233)" fill="#130f28"/>
    <path id="Path_900" data-name="Path 900" d="M311.963,49.4l3.795,3.985c-1.952,2.224-4.866,3.388-8.815,3.388-7.4,0-12.193-4.562-12.193-10.772s4.907-10.695,11.5-10.695c5.978,0,11,3.795,11.04,10.581l-14.835,2.837c.8,1.689,2.415,2.492,4.717,2.492a6.658,6.658,0,0,0,4.789-1.818ZM301.881,45l8.444-1.648a3.985,3.985,0,0,0-4.027-2.878C303.8,40.469,302.113,42.045,301.881,45Z" transform="translate(-138.581 -9.367)" fill="#130f28"/>
    <path id="Path_901" data-name="Path 901" d="M363.48,44.538V56.422h-7.286V45.727c0-2.986-1.3-4.253-3.409-4.253-2.338,0-4.119,1.457-4.119,4.907V56.422H341.36V35.671H348.3v2.266a8.923,8.923,0,0,1,6.591-2.611C359.763,35.3,363.48,38.1,363.48,44.538Z" transform="translate(-161.191 -9.373)" fill="#130f28"/>
    <path id="Path_902" data-name="Path 902" d="M402.845,51.546a9.821,9.821,0,0,1-5.062,1.184c-5.329,0-8.393-2.605-8.393-7.935V27h7.281v5.376h4.717v5.437h-4.717v6.9a2.081,2.081,0,0,0,2.147,2.379,3.99,3.99,0,0,0,2.214-.649Z" transform="translate(-184.49 -5.336)" fill="#130f28"/>
    <path id="Path_903" data-name="Path 903" d="M418.41,64.514a4.372,4.372,0,0,1,8.743,0,4.377,4.377,0,0,1-8.753,0Z" transform="translate(-198.563 -21.451)" fill="#130f28"/>
    <path id="Path_904" data-name="Path 904" d="M32.3,22.345,22.143,17.2c-5.849-3.3-13.073.927-13.073,8.882V50.66l9.176-6.534V31.866Z" transform="translate(0 -0.033)" fill="#4299d4"/>
    <path id="Path_905" data-name="Path 905" d="M40.942,22.313l.129.067V33.991L26.89,44.093h0l10.3,4.578a8.753,8.753,0,0,0,13.079-7.652V16Z" transform="translate(-8.644)" fill="#f0b11d"/>
    <path id="Path_906" data-name="Path 906" d="M41.071,28.327l-.129-.067L26.89,37.781v12.26l14.181-10.1Z" transform="translate(-8.644 -5.947)" fill="#00ad69"/>
    <path id="Path_907" data-name="Path 907" d="M41.071,28.327l-.129-.067L26.89,37.781v12.26l14.181-10.1Z" transform="translate(-8.644 -5.947)" fill="#006b3b"/>
  </g>
</svg>
