<svg xmlns="http://www.w3.org/2000/svg" width="206" height="32.483" viewBox="0 0 206 32.483">
  <g id="Logo" transform="translate(103 16.241)">
    <g id="Group_9" data-name="Group 9" transform="translate(-103 -16.241)">
      <g id="Group_3" data-name="Group 3" transform="translate(41.75 0.204)">
        <g id="Group_1" data-name="Group 1" transform="translate(0 3.044)">
          <path id="Path_1" data-name="Path 1" d="M110.7,6.722V32.6h-5.865L93.418,18.532h-.04V32.6H86.4V6.722h5.825L103.682,20.83h.04V6.722Z" transform="translate(-86.404 -6.722)" fill="#fff"/>
        </g>
        <g id="Group_2" data-name="Group 2" transform="translate(25.78)">
          <path id="Path_2" data-name="Path 2" d="M161.594,19.582v19.5h-6.511V37.136c-1.295,1.547-3.2,2.267-5.755,2.267-5.289,0-9.569-3.885-9.569-10.108,0-6.187,4.281-10.036,9.569-10.036a7.247,7.247,0,0,1,5.432,2.014V19.582Zm-6.727,9.713c0-2.95-1.8-4.6-4.1-4.6s-4.1,1.655-4.1,4.6c0,2.986,1.8,4.676,4.1,4.676S154.867,32.28,154.867,29.294Z" transform="translate(-139.758 -10.157)" fill="#fff"/>
          <path id="Path_3" data-name="Path 3" d="M187.186,37.388l2.051-4.676a13.671,13.671,0,0,0,6.8,1.8c2.3,0,3.058-.5,3.058-1.331,0-2.627-11.511.359-11.511-7.446,0-3.669,3.381-6.475,9.5-6.475a17.108,17.108,0,0,1,7.7,1.655l-2.051,4.641a11.422,11.422,0,0,0-5.611-1.439c-2.3,0-3.13.648-3.13,1.367,0,2.7,11.475-.216,11.475,7.518,0,3.6-3.309,6.4-9.641,6.4A17.89,17.89,0,0,1,187.186,37.388Z" transform="translate(-164.269 -10.157)" fill="#fff"/>
          <path id="Path_4" data-name="Path 4" d="M224.86,29.294c0-5.864,4.641-10.036,11.187-10.036,4.425,0,7.806,1.979,9.137,5.36l-5.288,2.7a4.227,4.227,0,0,0-3.885-2.626c-2.374,0-4.245,1.655-4.245,4.6,0,3.022,1.871,4.676,4.245,4.676a4.226,4.226,0,0,0,3.885-2.626l5.288,2.7c-1.331,3.381-4.713,5.36-9.137,5.36C229.5,39.4,224.86,35.23,224.86,29.294Z" transform="translate(-183.739 -10.157)" fill="#fff"/>
          <path id="Path_5" data-name="Path 5" d="M267,4.056c0-2.05,1.655-3.633,4.173-3.633s4.173,1.475,4.173,3.525c0,2.158-1.655,3.741-4.173,3.741S267,6.107,267,4.056Zm.756,5.792h6.835v19.5h-6.835Z" transform="translate(-205.518 -0.423)" fill="#fff"/>
          <path id="Path_6" data-name="Path 6" d="M301.841,32.5l3.562,3.741c-1.835,2.086-4.569,3.166-8.274,3.166-6.943,0-11.44-4.281-11.44-10.108,0-5.864,4.6-10.036,10.792-10.036,5.611,0,10.324,3.561,10.36,9.929l-13.921,2.662c.755,1.582,2.266,2.338,4.425,2.338A6.245,6.245,0,0,0,301.841,32.5Zm-9.461-4.137,7.914-1.547a3.735,3.735,0,0,0-3.777-2.7C294.179,24.114,292.6,25.589,292.38,28.359Z" transform="translate(-215.176 -10.157)" fill="#fff"/>
          <path id="Path_7" data-name="Path 7" d="M353.053,27.927V39.079h-6.835V29.043c0-2.806-1.223-3.993-3.2-3.993-2.194,0-3.885,1.367-3.885,4.6v9.425H332.3v-19.5h6.512V21.7A8.373,8.373,0,0,1,345,19.258C349.564,19.258,353.053,21.884,353.053,27.927Z" transform="translate(-239.264 -10.157)" fill="#fff"/>
          <path id="Path_8" data-name="Path 8" d="M392.947,33.978a9.184,9.184,0,0,1-4.748,1.115c-5,0-7.877-2.446-7.877-7.446V10.92h6.834v5.072h4.425V21.1h-4.425v6.475a1.956,1.956,0,0,0,2.014,2.23,3.743,3.743,0,0,0,2.086-.611Z" transform="translate(-264.083 -5.848)" fill="#fff"/>
          <path id="Path_9" data-name="Path 9" d="M409.358,48.227a4.1,4.1,0,0,1,8.2,0,4.1,4.1,0,0,1-8.2,0Z" transform="translate(-279.09 -23.046)" fill="#fff"/>
        </g>
      </g>
      <g id="Group_8" data-name="Group 8">
        <g id="Group_4" data-name="Group 4" transform="translate(0 0.015)">
          <path id="Path_10" data-name="Path 10" d="M21.8,5.929l-9.53-4.843C6.782-2,0,1.964,0,9.429V32.5l8.611-6.134v-11.5Z" transform="translate(0 -0.031)" fill="#12a0f3"/>
        </g>
        <g id="Group_5" data-name="Group 5" transform="translate(8.611)">
          <path id="Path_11" data-name="Path 11" d="M31.011,5.912l.118.06v10.9L17.821,26.348h0l9.648,4.3A8.234,8.234,0,0,0,39.74,23.469V0Z" transform="translate(-17.821)" fill="#f2b200"/>
        </g>
        <g id="Group_6" data-name="Group 6" transform="translate(8.611 5.912)">
          <path id="Path_12" data-name="Path 12" d="M31.129,12.3l-.118-.06L17.821,21.169v11.5l13.308-9.48Z" transform="translate(-17.821 -12.236)" fill="#00af69"/>
        </g>
        <g id="Group_7" data-name="Group 7" transform="translate(8.611 5.912)">
          <path id="Path_13" data-name="Path 13" d="M31.129,12.3l-.118-.06L17.821,21.169v11.5l13.308-9.48Z" transform="translate(-17.821 -12.236)" fill="#006a3b"/>
        </g>
      </g>
    </g>
  </g>
</svg>
