<svg xmlns="http://www.w3.org/2000/svg" xmlns:xlink="http://www.w3.org/1999/xlink" width="11" height="11" viewBox="0 0 11 11">
  <defs>
    <clipPath id="clip-path">
      <rect id="Rectangle_18" data-name="Rectangle 18" width="11" height="11" transform="translate(135 3034)" fill="#f2b200"/>
    </clipPath>
  </defs>
  <g id="pin" transform="translate(-135 -3034)" clip-path="url(#clip-path)">
    <g id="Pin-2" data-name="Pin" transform="translate(135 3034)">
      <path id="Path_28" data-name="Path 28" d="M5.5,0A4.13,4.13,0,0,0,1.375,4.125c0,2.961,3.843,6.67,4.006,6.827a.17.17,0,0,0,.237,0c.163-.156,4.006-3.865,4.006-6.827A4.13,4.13,0,0,0,5.5,0Zm0,6.016A1.891,1.891,0,1,1,7.391,4.125,1.891,1.891,0,0,1,5.5,6.016Z" fill="#f2b200"/>
    </g>
  </g>
</svg>
